<?xml version="1.0" encoding="UTF-8"?>
<!DOCTYPE svg PUBLIC "-//W3C//DTD SVG 1.1//EN" "http://www.w3.org/Graphics/SVG/1.1/DTD/svg11.dtd">
<svg xmlns="http://www.w3.org/2000/svg" version="1.1" width="314px" height="347px" style="shape-rendering:geometricPrecision; text-rendering:geometricPrecision; image-rendering:optimizeQuality; fill-rule:evenodd; clip-rule:evenodd" xmlns:xlink="http://www.w3.org/1999/xlink">
<g><path style="opacity:0.986" fill="#62bc50" d="M 146.5,-0.5 C 147.833,-0.5 149.167,-0.5 150.5,-0.5C 169.412,10.4091 188.079,21.7425 206.5,33.5C 156.5,63.1667 106.5,92.8333 56.5,122.5C 55.6668,148.494 55.1668,174.494 55,200.5C 36.5542,189.695 18.0542,179.029 -0.5,168.5C -0.5,140.833 -0.5,113.167 -0.5,85.5C 49.0006,57.5868 98.0006,28.9202 146.5,-0.5 Z"/></g>
<g><path style="opacity:0.982" fill="#62bc50" d="M 228.5,46.5 C 231.016,46.7553 233.35,47.5886 235.5,49C 256.5,61.1667 277.5,73.3333 298.5,85.5C 299.833,143.5 299.833,201.5 298.5,259.5C 279.418,270.456 260.584,281.789 242,293.5C 240.759,236.3 240.259,178.967 240.5,121.5C 217.335,108.085 194.335,94.4185 171.5,80.5C 190.362,68.9036 209.362,57.5702 228.5,46.5 Z"/></g>
<g><path style="opacity:0.966" fill="#4f5a5b" d="M 147.5,93.5 C 149.308,93.4914 150.975,93.9914 152.5,95C 159.833,99.6667 167.167,104.333 174.5,109C 151.999,122.752 129.332,136.252 106.5,149.5C 105.668,160.819 105.168,172.152 105,183.5C 96.4187,178.793 87.9187,173.96 79.5,169C 78.1797,157.229 78.1797,145.395 79.5,133.5C 102.466,120.503 125.133,107.169 147.5,93.5 Z"/></g>
<g><path style="opacity:0.971" fill="#4f5a5b" d="M 187.5,117.5 C 197.636,122.153 207.469,127.487 217,133.5C 217.833,160.506 217.667,187.506 216.5,214.5C 208.5,219.167 200.5,223.833 192.5,228.5C 191.548,202.499 191.382,176.499 192,150.5C 182.167,144.667 172.333,138.833 162.5,133C 170.897,127.808 179.231,122.642 187.5,117.5 Z"/></g>
<g><path style="opacity:0.963" fill="#4f5a5b" d="M 78.5,184.5 C 102.057,197.378 125.39,210.711 148.5,224.5C 158.002,218.581 167.669,212.914 177.5,207.5C 178.833,217.5 178.833,227.5 177.5,237.5C 168.083,243.293 158.583,248.959 149,254.5C 125.915,241.04 102.748,227.707 79.5,214.5C 78.5015,204.522 78.1681,194.522 78.5,184.5 Z"/></g>
<g><path style="opacity:0.985" fill="#62bc50" d="M -0.5,195.5 C 49.3599,223.683 99.1932,252.016 149,280.5C 171.833,267.085 194.499,253.418 217,239.5C 218.158,261.825 218.491,284.158 218,306.5C 195.925,320.094 173.758,333.428 151.5,346.5C 150.833,346.5 150.167,346.5 149.5,346.5C 99.8339,317.331 49.8339,288.664 -0.5,260.5C -0.5,238.833 -0.5,217.167 -0.5,195.5 Z"/></g>
</svg>
